<svg width="77" height="47" viewBox="0 0 77 47" fill="none" xmlns="http://www.w3.org/2000/svg">
<ellipse cx="39.2285" cy="41.1265" rx="37" ry="4.89744" transform="rotate(-3.4671 39.2285 41.1265)" fill="#D9D9D9"/>
<path d="M6.07424 7.14082C6.12008 6.89716 6.34645 6.84126 6.51264 6.73806C8.54847 5.47961 10.6459 4.33296 12.7949 3.27805C13.4382 2.96272 14.0786 2.96128 14.7548 3.05158C16.4769 3.28235 18.1975 3.52458 19.9239 3.71521C22.4039 3.98897 24.8867 4.2226 27.3695 4.46626C29.1546 4.64113 30.9412 4.80022 32.7248 4.97509C34.6131 5.15998 36.4999 5.36065 38.3868 5.54698C40.1461 5.72184 41.9054 5.88667 43.6633 6.0601C45.6289 6.2536 47.5931 6.45427 49.5588 6.64633C51.3439 6.82119 53.129 6.98316 54.9141 7.15802C56.8281 7.34579 58.7408 7.54358 60.6548 7.73421C61.8697 7.85461 63.0875 7.96498 64.3024 8.09111C66.1362 8.2803 67.97 8.4781 69.8039 8.67447C70.3984 8.73753 70.9901 8.82496 71.5861 8.8651C72.2365 8.90953 72.632 9.26786 72.897 9.82112C73.1764 10.4045 73.2208 11.0337 73.1778 11.6558C73.0732 13.1392 73.1219 14.6227 73.1162 16.1076C73.0947 21.7076 73.0818 27.3061 73.0661 32.906C73.0661 33.0623 73.0661 33.2185 73.0603 33.3747C73.0546 33.5797 73.1205 33.6772 73.3526 33.7359C73.9787 33.895 74.0403 33.9796 73.9873 34.5816C73.9472 35.046 73.8426 35.5046 73.7695 35.9662C73.7108 36.336 73.493 36.5065 73.1219 36.4936C72.2724 36.4635 71.4213 36.4621 70.5732 36.5223C69.8468 36.5739 69.1219 36.6327 68.3955 36.6685C67.6104 36.7072 67.6104 36.6972 67.5517 35.8744C67.5288 35.5634 67.4801 35.2524 67.4829 34.9413C67.4944 33.8879 66.248 32.863 65.1219 32.8946C63.8396 32.9304 63.1262 33.5639 62.9442 34.9485C63.1563 35.0058 63.1777 34.798 63.2637 34.7048C64.1434 33.7417 65.4643 33.6542 66.4571 34.5099C67.9213 35.7727 67.7594 38.5748 66.4557 39.7143C66.0288 40.0884 65.5331 40.2905 64.9471 40.15C64.897 40.1385 64.8439 40.1342 64.7924 40.1285C63.3998 40.0081 62.8583 39.5079 62.5703 38.1075C62.5087 37.808 62.5889 37.421 62.3626 37.2275C62.1147 37.0139 61.7666 37.2547 61.4657 37.2905C59.9112 37.4769 58.3511 37.4711 56.7895 37.4625C55.8783 37.4582 54.9814 37.5285 54.0831 37.7234C53.4542 37.8596 52.7909 37.8495 52.1433 37.8868C49.9628 38.0101 47.7794 38.1176 45.5988 38.248C42.5358 38.4315 39.4742 38.6278 36.4125 38.8213C35.5042 38.8787 34.5945 38.8987 33.6862 38.9704C31.6904 39.1266 29.689 39.2097 27.689 39.3215C27.5328 39.3301 27.3767 39.3416 27.2205 39.3344C27.0787 39.3273 26.8724 39.3746 26.8853 39.1366C26.8967 38.9431 27.0715 38.9116 27.2334 38.9016C28.0386 38.85 28.8423 38.7941 29.6475 38.7511C31.881 38.6278 34.1145 38.5203 36.3481 38.3885C38.606 38.2552 40.8639 38.0975 43.1217 37.9585C46.3653 37.7578 49.6103 37.5528 52.8553 37.3722C54.6462 37.2733 56.4342 37.1042 58.2322 37.1558C59.5345 37.1931 60.8239 36.9924 62.1161 36.8605C62.3855 36.8333 62.4815 36.7272 62.4686 36.4721C62.4413 35.9232 62.5201 35.3799 62.5975 34.8396C62.8095 33.369 63.7981 32.4746 65.1806 32.5491C66.6935 32.6308 67.7981 33.7101 67.8325 35.0159C67.8411 35.3541 67.8941 35.691 67.9013 36.0292C67.907 36.3073 68.0388 36.389 68.2924 36.3704C69.5875 36.27 70.8841 36.1683 72.1792 36.0794C72.4958 36.0579 72.6735 35.883 72.6993 35.6007C72.7265 35.3011 72.8297 34.9643 72.6105 34.702C72.4887 34.5558 72.2652 34.6246 72.0875 34.6332C71.0231 34.6848 69.9586 34.7478 68.8941 34.7966C68.6119 34.8095 68.3239 34.8625 68.0488 34.7507C68.013 34.4985 68.195 34.5214 68.344 34.5099C69.407 34.4254 70.4701 34.3623 71.5374 34.3365C72.7251 34.3078 72.7265 34.2906 72.7294 33.1139C72.748 25.7954 72.7652 18.4769 72.7853 11.1584C72.7853 10.6868 72.7924 10.221 72.5259 9.80105C72.3053 9.45562 72.0331 9.21052 71.5961 9.17899C69.1104 8.99696 66.6477 8.59277 64.1491 8.50104C62.3883 8.43654 60.6348 8.16134 58.8769 7.98361C57.6104 7.85604 56.341 7.73851 55.0745 7.61381C53.1347 7.42175 51.1963 7.22395 49.2565 7.03476C47.4456 6.85703 45.6347 6.6922 43.8238 6.51446C41.9355 6.32957 40.0487 6.13464 38.1618 5.94687C36.9197 5.82361 35.6776 5.70751 34.4369 5.58568C31.9025 5.33628 29.3681 5.08259 26.8322 4.83462C25.103 4.66406 23.3709 4.52216 21.6445 4.32436C19.6058 4.09073 17.5586 3.94454 15.5328 3.60054C15.1015 3.52744 14.6517 3.55038 14.209 3.54751C13.8451 3.54464 13.6674 3.83274 13.4969 4.08357C13.3092 4.3602 13.1731 4.67266 13.0757 5.05249C13.5643 5.11125 13.9783 4.85899 14.4138 4.78016C14.9883 4.67696 15.5514 4.65259 16.1187 4.69559C17.3351 4.78589 18.5471 4.94499 19.7677 5.00949C20.4296 5.04532 20.7993 5.43518 20.7076 6.0988C20.3995 8.35627 20.676 10.6252 20.4984 12.887C20.368 14.5467 20.474 16.218 20.5356 17.8835C20.5772 19.0273 20.656 20.1725 20.5944 21.3177C20.5313 22.493 19.9454 23.1165 18.7606 23.2341C18.0886 23.3014 17.4124 23.3301 16.7362 23.3688C15.3365 23.4476 13.931 23.4533 12.5442 23.6999C12.2591 23.75 11.9969 23.8575 11.7333 23.965C11.1917 24.1858 10.9396 24.5627 10.9339 25.169C10.9152 27.2516 10.8665 29.3342 10.8164 31.4168C10.8121 31.6218 10.9382 31.9787 10.6416 31.993C10.3307 32.0074 10.3952 31.6505 10.4023 31.4312C10.4511 29.9778 10.3522 28.5201 10.5542 27.0696C10.633 26.5092 10.8207 25.8083 10.5098 25.3984C10.196 24.9856 9.48687 25.2708 8.95678 25.2923C7.03413 25.3683 5.11435 25.5073 3.19313 25.5789C2.6745 25.5976 2.6788 25.9014 2.66877 26.2426C2.63009 27.6487 2.59571 29.0533 2.56705 30.4594C2.55273 31.1359 2.57422 31.8139 2.54413 32.4904C2.52837 32.8444 2.65588 33.0264 2.99399 33.0924C3.17164 33.1268 3.34356 33.1855 3.51978 33.2285C3.96534 33.3389 4.16305 33.6442 4.17308 34.0799C4.18454 34.5701 4.17595 35.0603 4.17595 35.5634C3.58282 35.5992 3.16018 35.1993 2.60287 35.1606C2.43811 35.9289 2.67164 36.594 3.04843 37.2275C3.16018 37.4152 3.36792 37.4998 3.55846 37.5715C5.32925 38.2394 7.0986 38.9045 8.84646 39.6311C10.3049 40.2389 11.8322 40.2747 13.3737 40.0984C14.7935 39.9364 16.2047 39.6928 17.6373 39.6741C18.0098 39.6698 18.3236 39.4663 18.6918 39.4491C18.9354 39.4376 18.901 39.1968 18.8881 39.0163C18.8465 38.4143 18.8752 37.8223 19.05 37.2375C19.6803 35.1305 21.8723 33.8377 23.8566 34.4297C25.0658 34.7908 25.881 35.5978 26.2391 36.8032C26.3738 37.2533 26.5873 37.3479 27.0099 37.3149C29.55 37.1157 32.0902 36.9279 34.6317 36.7516C36.5773 36.6169 38.5243 36.5051 40.4713 36.3861C42.755 36.2457 45.0387 36.1066 47.3238 35.9719C47.8166 35.9432 48.3123 35.926 48.8066 35.9217C50.4198 35.9045 52.0272 35.7899 53.6347 35.6609C53.7379 35.6523 53.8424 35.6508 53.9456 35.658C54.0616 35.6652 54.1433 35.7411 54.1576 35.8501C54.172 35.969 54.086 36.0378 53.9743 36.0536C53.6404 36.1009 53.3052 36.1668 52.9699 36.1826C51.5416 36.2528 50.1103 36.2958 48.682 36.3718C46.1633 36.5051 43.6461 36.6527 41.1275 36.8004C39.1805 36.915 37.2335 37.0368 35.2879 37.1572C32.6145 37.3221 29.9411 37.484 27.2678 37.656C27.0142 37.6718 26.7506 37.6847 26.53 37.8194C26.3681 38.3182 26.8494 38.8113 26.5514 39.3115C26.2979 39.2441 26.3466 39.0664 26.3294 38.9288C26.2434 38.2552 26.06 37.603 25.8423 36.9652C25.4426 35.7999 24.6646 35.0245 23.4182 34.7908C22.3337 34.5873 20.901 34.9872 20.1617 36.1754C20.4483 36.2371 20.6603 36.055 20.8924 35.9647C22.4612 35.3541 24.8437 36.2385 25.6789 37.8094C26.4483 39.2556 26.3638 40.6703 25.55 42.0391C24.7062 43.4581 23.05 44.0486 21.4081 43.5857C21.0084 43.4739 20.6015 43.3735 20.2219 43.213C19.2778 42.8131 18.6846 42.0878 18.411 41.106C18.0672 39.8691 18.0743 39.8705 16.8064 40.0482C16.4984 40.0912 16.1846 40.0998 15.8737 40.1256C15.3307 40.1686 14.8107 40.2231 14.3436 40.5872C14.0184 40.8394 13.5514 41 13.1631 40.8251C12.3694 40.4668 11.5241 40.6158 10.7118 40.4639C10.0184 40.3349 9.33214 40.1858 8.68744 39.9149C7.01121 39.2097 5.31349 38.5662 3.60861 37.937C3.02981 37.7234 2.64012 37.3651 2.46104 36.7631C2.31061 36.2629 2.16877 35.7712 2.1788 35.2395C2.23467 32.3499 2.22178 29.4575 2.34642 26.5708C2.4596 23.9464 2.72895 21.3292 2.90946 18.7062C2.95961 17.9853 3.12436 17.2729 3.08282 16.5047C2.82064 16.6408 2.81634 16.9074 2.67307 17.0737C2.54843 17.2199 2.41089 17.3517 2.20889 17.2772C2.04126 17.2156 2.02694 17.0479 2.01261 16.8859C1.95387 16.2022 2.11576 15.5372 2.18166 14.8664C2.24327 14.2458 2.34356 13.6294 2.43811 13.0131C2.55416 12.2491 2.90087 11.6171 3.62867 11.2946C4.00689 11.1269 4.08139 10.823 4.15732 10.4976C4.35217 9.66058 4.56707 8.83213 4.95675 8.05814C5.20174 7.57082 5.51263 7.17809 6.10289 7.12219C5.65017 7.69408 5.05847 8.18571 4.994 9.08726C6.12725 8.30037 7.27912 7.70985 8.40806 7.07919C9.65163 6.38403 10.8981 5.69318 12.2834 5.30905C12.4367 5.26605 12.5757 5.23165 12.6516 5.06682C12.8494 4.63969 13.0585 4.2183 13.2634 3.79404C13.2204 3.75391 13.176 3.71521 13.133 3.67507C12.56 4.04917 11.8651 4.0506 11.2734 4.38026C9.7118 5.24742 8.14159 6.1031 6.57138 6.95592C6.41665 7.03906 6.27768 7.18095 6.07567 7.15229L6.07424 7.14082ZM24.4913 39.8103C24.487 39.1467 24.262 38.4716 23.9339 38.0531C23.2921 37.2332 22.2864 37.1873 21.5758 37.9456C20.7205 38.8586 20.6488 40.5757 21.4253 41.5589C22.0872 42.396 23.1488 42.4247 23.8365 41.6091C24.2921 41.0702 24.4597 40.4209 24.4898 39.8103H24.4913ZM64.1777 37.1601C64.2007 37.7162 64.2995 38.2494 64.6305 38.7095C65.0073 39.2341 65.5302 39.2413 65.9156 38.7411C66.5116 37.9642 66.4829 36.3087 65.8597 35.5777C65.4657 35.1148 64.98 35.1219 64.6247 35.6136C64.2924 36.0722 64.1964 36.6083 64.1777 37.1601ZM20.0242 9.16752C19.6388 8.90666 19.2649 8.88946 18.8924 8.8651C17.3623 8.76763 15.8307 8.6673 14.3007 8.5727C13.964 8.5512 13.6259 8.5426 13.2878 8.534C13.1645 8.53113 13.1044 8.60567 13.0972 8.72607C13.0915 8.82496 13.1674 8.86223 13.2362 8.87513C13.3637 8.8995 13.4941 8.9038 13.6244 8.91383C15.5413 9.06289 17.4683 9.08153 19.3795 9.32232C19.5672 9.34526 19.7778 9.38682 20.0256 9.16752H20.0242ZM3.87652 11.5411C3.14585 11.812 2.88654 12.3437 2.78195 12.9457C2.64012 13.7627 2.53983 14.5869 2.45674 15.4125C2.41662 15.8095 2.25187 16.208 2.4023 16.6551C2.69886 16.3871 2.72178 16.0618 2.75617 15.7278C2.85072 14.8506 2.95817 13.9763 3.06992 13.1005C3.09141 12.9343 3.05846 12.7221 3.29915 12.6619C3.56563 12.8096 3.24328 13.1435 3.51692 13.3227C3.63296 12.7451 3.82924 12.209 3.87509 11.5411H3.87652ZM3.86506 34.5013C3.87652 33.6901 3.64299 33.4163 2.93095 33.3819C2.7662 33.3733 2.62866 33.3876 2.56132 33.5725C2.29198 34.3021 2.85072 35.1148 3.62437 35.1162C3.78483 35.1162 3.85789 35.0345 3.86506 34.8869C3.87079 34.7579 3.86506 34.6289 3.86506 34.4999V34.5013ZM73.6663 34.6303C73.6663 34.5314 73.6706 34.4526 73.6663 34.3752C73.652 34.1659 73.5575 34.0398 73.3282 34.0341C73.0517 34.0269 73.0718 34.2218 73.0589 34.4024C73.0216 34.917 73.1434 35.4416 72.9629 35.9475C72.9285 36.0436 73.0016 36.098 73.0761 36.1124C73.1463 36.1253 73.2337 36.1167 73.2981 36.0851C73.4257 36.0235 73.4686 35.8902 73.4901 35.7626C73.556 35.3785 73.6105 34.9929 73.6678 34.6289L73.6663 34.6303Z" fill="#333333"/>
<path d="M24.4261 13.1721C24.333 11.2429 24.4719 9.19178 24.5092 7.13785C24.5207 6.48999 24.6754 6.29076 25.3172 6.27356C25.8846 6.25779 26.4605 6.28789 27.0221 6.37103C28.2585 6.55306 29.5092 6.51579 30.747 6.67202C31.5694 6.77522 31.5866 6.77379 31.5823 7.63234C31.568 11.6642 31.5522 15.6947 31.5365 19.7266C31.5365 19.8829 31.5293 20.0391 31.5336 20.1953C31.5393 20.4404 31.4562 20.5866 31.1783 20.5823C29.6969 20.5565 28.2155 20.5608 26.737 20.4992C26.2714 20.4805 25.8043 20.4691 25.3373 20.4476C24.641 20.4146 24.5106 20.2985 24.5106 19.6191C24.5106 17.5122 24.3645 15.4081 24.4247 13.175L24.4261 13.1721Z" fill="#333333"/>
<path d="M32.5865 13.7124C32.5865 11.6843 32.5836 9.65613 32.5865 7.62799C32.5879 6.82677 32.5979 6.8454 33.363 6.92997C34.9847 7.10913 36.5951 7.37143 38.2083 7.61509C38.8831 7.71685 38.8974 7.70539 38.8945 8.36758C38.8859 10.4473 38.8601 12.5271 38.8515 14.6068C38.8429 16.5016 38.8444 18.3979 38.8515 20.2927C38.853 20.641 38.6939 20.7457 38.3745 20.7385C36.9977 20.7084 35.6209 20.6926 34.2441 20.664C33.8286 20.6554 33.4145 20.6023 32.9991 20.6081C32.6323 20.6138 32.4905 20.4791 32.5005 20.1064C32.5248 19.1189 32.5234 18.1313 32.5263 17.1423C32.5291 15.9985 32.5263 14.8547 32.5263 13.711H32.5836L32.5865 13.7124Z" fill="#333333"/>
<path d="M62.934 15.6473C62.934 13.903 62.9297 12.1586 62.9369 10.4129C62.9398 9.81517 62.9527 9.80084 63.5501 9.84957C65.2593 9.9886 66.967 10.1391 68.6748 10.291C69.2665 10.3441 69.3281 10.4014 69.3152 11.0163C69.2708 13.0717 69.2106 15.1285 69.1561 17.1838C69.1203 18.4853 69.0874 19.7853 69.043 21.0867C69.0229 21.6859 69.01 21.6988 68.414 21.6859C66.7493 21.6486 65.0816 21.7174 63.4212 21.5612C62.7922 21.5024 62.7851 21.4909 62.7836 20.8803C62.7793 19.136 62.7822 17.3931 62.7822 15.6488H62.9369L62.934 15.6473Z" fill="#333333"/>
<path d="M40.042 14.2833C40.042 12.4372 40.042 10.5925 40.042 8.74639C40.042 8.53856 40.0363 8.32929 40.0564 8.1229C40.0865 7.81187 40.2655 7.65994 40.5822 7.6929C41.8974 7.8348 43.2111 7.98243 44.5249 8.12003C44.8186 8.15013 44.9275 8.30349 44.9174 8.58442C44.9045 8.94848 44.9117 9.31255 44.9031 9.67661C44.8214 13.1581 44.7383 16.6396 44.6552 20.1212C44.6524 20.2516 44.6452 20.3806 44.6495 20.511C44.6567 20.7575 44.5722 20.9009 44.2956 20.898C43.0234 20.8794 41.7498 20.8751 40.4776 20.8507C40.075 20.8435 39.9776 20.5712 39.9847 20.2086C40.0048 19.0906 40.0105 17.974 40.0162 16.8561C40.0205 15.9989 40.0162 15.1404 40.0162 14.2833C40.0248 14.2833 40.0334 14.2833 40.0406 14.2833H40.042Z" fill="#333333"/>
<path d="M51.5002 15.0836C51.5002 13.3149 51.4916 11.5476 51.5031 9.77892C51.5088 8.85443 51.5475 8.81143 52.4902 8.88023C53.6034 8.96193 54.7108 9.10096 55.824 9.19126C56.1965 9.22136 56.2209 9.43492 56.2094 9.72159C56.1564 11.0202 56.0876 12.3202 56.0676 13.6202C56.0332 15.9092 56.0346 18.1982 56.016 20.4872C56.0103 21.211 56.0031 21.2096 55.2825 21.2039C54.1392 21.1938 52.9945 21.1695 51.8512 21.1838C51.4787 21.1881 51.3527 21.0806 51.3555 20.7022C51.3713 18.8303 51.3627 16.9569 51.3627 15.085C51.4085 15.085 51.4529 15.085 51.4988 15.085L51.5002 15.0836Z" fill="#333333"/>
<path d="M45.7459 14.6284C45.7903 12.702 45.8332 10.7756 45.882 8.84927C45.8963 8.27451 45.9278 8.25014 46.4436 8.29888C47.5037 8.39778 48.5654 8.49524 49.6255 8.59844C50.3132 8.6658 50.3104 8.68587 50.296 9.40826C50.2402 12.1932 50.1972 14.9795 50.1442 17.7659C50.127 18.6503 50.1112 19.5375 50.0553 20.4204C50.0152 21.0611 49.988 21.064 49.3634 21.0496C48.3232 21.0253 47.2817 21.0152 46.2416 20.9608C45.6226 20.9278 45.6098 20.8948 45.6241 20.2527C45.6671 18.3779 45.7215 16.5046 45.7716 14.6298C45.763 14.6298 45.7545 14.6298 45.7444 14.6298L45.7459 14.6284Z" fill="#333333"/>
<path d="M61.4374 15.7017C61.393 17.2984 61.2955 19.0915 61.3557 20.8846C61.37 21.3146 61.1981 21.359 60.8643 21.3461C59.6967 21.3002 58.5276 21.2615 57.3586 21.2286C57.1035 21.2214 56.9674 21.1297 56.9861 20.8602C56.9918 20.7828 56.9861 20.704 56.9875 20.6266C57.0305 17.1422 56.9445 13.6564 57.1021 10.172C57.1078 10.0416 57.1193 9.91113 57.1136 9.78213C57.0978 9.44674 57.2439 9.31631 57.5835 9.35357C58.3313 9.43384 59.0864 9.4668 59.8314 9.57287C60.297 9.6388 60.7626 9.64597 61.2282 9.68897C61.5018 9.71477 61.658 9.80937 61.6265 10.1276C61.4488 11.9163 61.5506 13.7137 61.4359 15.7017H61.4374Z" fill="#333333"/>
<path d="M62.1452 28.8234C62.1423 28.9137 62.0822 28.9897 62.0105 28.9797C61.8859 28.9639 61.7627 28.9152 61.6466 28.865C59.2484 27.8216 56.7168 27.264 54.1552 26.8254C53.0033 26.629 51.8486 26.4642 50.6867 26.3252C48.9976 26.1216 47.3084 26.156 45.6222 26.2435C43.9646 26.3295 42.3127 26.5244 40.668 26.781C37.6264 27.2568 34.7038 28.1469 31.8384 29.242C30.0204 29.9371 28.2209 30.6824 26.4588 31.5138C25.9659 31.746 25.4745 31.9868 25.0332 32.3136C24.9487 32.3766 24.8527 32.4382 24.7582 32.348C24.6221 32.219 24.7209 32.1115 24.8169 32.0255C25.1307 31.746 25.5017 31.5539 25.8757 31.3719C28.3513 30.1636 30.8957 29.1201 33.4932 28.2042C36.6408 27.0949 39.8671 26.361 43.1938 26.0428C44.956 25.8737 46.7153 25.7404 48.4861 25.7633C50.4159 25.7891 52.3156 26.0901 54.2111 26.4054C56.4919 26.7853 58.7383 27.3127 60.9145 28.1068C61.2555 28.2315 61.5807 28.3949 61.9117 28.5439C62.032 28.5984 62.1395 28.6686 62.1438 28.8206L62.1452 28.8234Z" fill="#333333"/>
<path d="M24.2109 27.0798C24.3771 26.7501 24.6837 26.72 24.943 26.634C27.509 25.7884 30.1307 25.1577 32.7855 24.6646C34.8056 24.2905 36.8443 24.034 38.893 23.9437C41.0921 23.8462 43.2956 23.8075 45.5005 23.9939C46.7942 24.1042 48.0893 24.1917 49.383 24.3264C53.2913 24.7363 57.1352 25.4601 60.8945 26.6125C61.3902 26.7644 61.896 26.8848 62.3974 27.0181C62.5063 27.0468 62.5994 27.1142 62.5894 27.2245C62.5751 27.3822 62.4476 27.441 62.3072 27.4094C61.9031 27.3177 61.4948 27.2303 61.0994 27.107C57.3472 25.9274 53.5048 25.2165 49.6036 24.7564C46.0291 24.335 42.4474 24.1859 38.86 24.3551C35.6652 24.5055 32.5118 25.0287 29.4029 25.7941C27.817 26.1854 26.2253 26.5595 24.6866 27.1242C24.549 27.1744 24.3972 27.2661 24.2109 27.0783V27.0798Z" fill="#333333"/>
<path d="M71.8257 17.4718C71.701 18.6987 71.7168 19.9729 71.701 21.2485C71.6939 21.7875 71.6724 21.7875 71.1137 21.8004C70.0678 21.8233 70.0535 21.8233 70.0692 20.7985C70.1208 17.6753 70.181 14.5521 70.2512 11.4289C70.2569 11.1709 70.1165 10.7739 70.5048 10.7051C70.8644 10.6406 71.1437 10.9043 71.3028 11.224C71.4303 11.4791 71.4804 11.7614 71.5048 12.0524C71.6051 13.2449 71.681 14.4389 71.7111 15.6371C71.7254 16.2348 71.7827 16.8311 71.8243 17.4746L71.8257 17.4718Z" fill="#333333"/>
<path d="M21.7006 13.2367C21.7006 11.3132 21.7006 9.39116 21.7006 7.46765C21.7006 7.12939 21.7078 6.79113 21.7307 6.4543C21.7494 6.17337 21.8525 5.91824 22.1949 5.96411C22.4829 6.00281 22.7608 6.10314 22.7508 6.4887C22.7422 6.79973 22.7508 7.11219 22.7422 7.42466C22.6405 11.3218 22.6104 15.2204 22.5946 19.119C22.5946 19.3527 22.5989 19.5877 22.5846 19.8214C22.556 20.3187 22.0875 20.5882 21.6706 20.3474C21.4471 20.2184 21.5015 19.9862 21.5029 19.7855C21.5187 18.2519 21.5431 16.7183 21.5602 15.1846C21.5674 14.5353 21.5602 13.886 21.5602 13.2367C21.6061 13.2367 21.6519 13.2367 21.6978 13.2367H21.7006Z" fill="#333333"/>
<path d="M20.5493 25.0283C21.0149 25.1903 20.9705 25.4497 20.9662 25.6747C20.9404 27.3646 20.9089 29.0545 20.8774 30.7444C20.8745 30.8734 20.8645 31.0038 20.843 31.1328C20.8015 31.3851 20.6883 31.5241 20.3932 31.5614C19.5178 31.6732 18.6725 31.9326 17.8215 32.1662C16.8631 32.4299 16.1639 32.9975 15.661 33.836C15.5937 33.9478 15.5135 34.051 15.4562 34.1671C15.0522 34.9726 14.3659 35.2263 13.5163 35.1733C13.1797 35.1518 12.843 35.1489 12.5049 35.1332C11.9547 35.1074 11.8387 34.9913 11.8014 34.428C11.7957 34.3506 11.7857 34.2689 11.8014 34.1944C11.8444 33.988 11.6768 33.6268 11.9791 33.6139C12.3158 33.5995 12.161 33.9679 12.1825 34.17C12.2398 34.7146 12.2284 34.7146 12.7756 34.706C14.5264 34.6774 14.4877 34.9153 15.4576 33.2828C15.9132 32.5159 16.6095 32.0386 17.4648 31.7706C18.3072 31.5055 19.1525 31.2532 20.0221 31.1113C20.3516 31.0568 20.4462 30.9207 20.4519 30.6096C20.4748 29.2838 20.5192 27.9594 20.5479 26.6336C20.5594 26.1176 20.5493 25.6002 20.5493 25.0283Z" fill="#333333"/>
<path d="M6.49788 34.6734C6.09386 34.3624 5.58526 34.3409 5.12681 34.1789C4.87036 34.0886 4.60675 34.0212 4.20703 33.9008C4.52652 33.6901 4.71276 33.7417 4.89901 33.7962C5.942 34.1001 6.98785 34.3939 8.02367 34.7221C8.17267 34.7694 8.24287 34.7665 8.35032 34.6834C8.70706 34.4097 9.10104 34.3968 9.53228 34.4785C9.83457 34.5358 10.1541 34.5 10.4649 34.5071C10.8432 34.5157 11.0266 34.7135 11.0495 35.089C11.081 35.6409 11.0122 36.1784 10.8604 36.7058C10.7816 36.9796 10.6039 37.1587 10.2973 37.1487C10.091 37.1415 9.86466 37.1702 9.68128 37.0971C9.17411 36.8922 8.65691 36.7388 8.12253 36.6227C7.78585 36.5496 7.54373 36.412 7.75576 35.9763C7.8976 35.6839 7.94917 35.3456 8.04516 35.0116C7.6655 34.9084 7.33599 34.7436 6.9592 34.8024C6.80447 34.7594 6.65117 34.7164 6.49644 34.6748L6.49788 34.6734ZM9.71996 34.8081C8.58671 34.8095 8.3231 34.993 8.11823 35.8559C8.04803 36.1526 8.13829 36.3188 8.42196 36.359C8.83743 36.4177 9.22282 36.5611 9.61108 36.7101C10.3546 36.9968 10.4778 36.9194 10.6412 36.1153C10.6512 36.0637 10.667 36.015 10.677 35.9634C10.869 34.8912 10.7973 34.8052 9.71853 34.8081H9.71996Z" fill="#333333"/>
<path d="M17.8293 37.5978C17.0557 37.83 12.5786 37.7955 11.8594 37.5806C11.8966 37.3111 12.1144 37.3584 12.2777 37.367C13.3107 37.4215 14.3451 37.3154 15.3795 37.4444C15.9396 37.5146 16.517 37.4501 17.0858 37.4501C17.3078 37.4501 17.5428 37.3756 17.8293 37.5992V37.5978Z" fill="#333333"/>
<path d="M6.49499 34.6737C6.64972 34.7167 6.80301 34.7597 6.95774 34.8013C7.12393 35.1023 7.55087 34.9317 7.7801 35.3287C7.1182 35.4047 6.58238 35.1137 6.03223 34.9704C5.47636 34.8256 4.90042 34.7267 4.29297 34.4472C4.62965 34.1835 4.89756 34.3569 5.14398 34.4071C5.59384 34.5003 6.01504 34.7296 6.49499 34.6737Z" fill="#333333"/>
<path d="M7.42252 35.8293C6.43684 35.7246 5.49987 35.4222 4.51562 35.1155C4.98124 34.9033 6.71191 35.3047 7.42252 35.8293Z" fill="#333333"/>
<path d="M4.55469 35.6396C5.25383 35.5349 6.49166 35.8875 7.17934 36.3806C6.1908 36.2745 5.45154 35.9707 4.55469 35.6396Z" fill="#333333"/>
</svg>
