<svg width="77" height="47" viewBox="0 0 77 47" fill="none" xmlns="http://www.w3.org/2000/svg">
<ellipse cx="39.2285" cy="41.1265" rx="37" ry="4.89744" transform="rotate(-3.4671 39.2285 41.1265)" fill="#D9D9D9"/>
<path d="M35.4654 37.5203C35.3397 38.4806 35.245 39.2536 34.9975 39.9972C34.6186 41.1313 34.0174 42.1209 33.0933 42.8802C31.9759 43.7976 30.7173 44.1879 29.2616 43.9186C28.2485 43.7312 27.3012 43.3506 26.3694 42.9543C25.5265 42.5952 25.0509 41.8047 24.672 40.9927C24.3453 40.292 24.0669 39.5678 23.7325 38.7695C22.3946 39.3219 21.0472 39.2067 19.6997 38.9003C19.2357 38.7949 18.8123 38.8456 18.3947 39.115C16.3803 40.4188 14.3252 39.0506 13.4862 37.5593C13.2097 37.0694 12.9352 36.8879 12.4152 36.7493C10.7893 36.3199 9.22335 35.6894 7.66901 35.0453C7.33262 34.9067 7.12577 34.6139 6.91697 34.3231C6.19587 33.3296 5.98708 32.1799 6.00061 30.999C6.01608 29.7615 6.10114 28.5162 6.62892 27.3588C6.70045 27.2007 6.80291 27.025 6.79325 26.863C6.70045 25.1121 7.72508 23.9742 8.8773 22.8889C9.25815 22.5298 9.55394 22.0789 9.91932 21.6963C11.8062 19.721 14.1648 18.587 16.7495 17.896C17.9365 17.5798 19.1352 17.289 20.3473 17.1055C21.1148 16.9884 21.7605 16.7054 22.3405 16.233C24.3627 14.5876 26.3559 12.905 28.3974 11.285C30.7927 9.38382 33.3968 7.87306 36.4398 7.30701C37.1261 7.18014 37.8375 7.19185 38.5373 7.14696C43.2448 6.84246 47.9388 7.06107 52.6385 7.37533C54.8057 7.51977 56.9748 7.77351 59.1555 7.72081C59.4668 7.713 59.7819 7.80474 60.0951 7.83207C61.0482 7.916 61.6436 8.36689 61.8234 9.3682C61.9897 10.2895 62.4421 11.0703 63.08 11.771C64.1124 12.905 64.7156 14.326 65.4386 15.6591C66.1133 16.9005 66.7358 18.1751 67.2984 19.4731C67.629 20.2383 68.3617 20.4823 68.9146 20.939C69.3167 21.2708 69.5661 21.6026 69.7498 22.077C70.1461 23.1115 70.4032 24.1635 70.4902 25.2722C70.5502 26.0451 70.6681 26.82 70.8343 27.5774C71.1959 29.2111 70.8691 30.8253 70.7609 32.4454C70.7125 33.1812 70.583 33.8976 70.701 34.6549C70.8382 35.5274 70.0649 36.1247 69.1872 35.9432C68.8141 35.8651 68.9282 35.586 68.9398 35.3576C68.9977 34.2919 68.9784 33.232 68.7194 32.1877C68.5396 31.4636 68.3134 30.759 67.9635 30.0973C67.6 29.4102 67.0568 29.0257 66.2738 29.055C65.3748 29.0881 64.4623 29.0901 63.6639 29.7869C64.0505 29.7869 64.4372 29.8025 64.8238 29.783C66.1075 29.7186 67.051 30.2924 67.7469 31.3406C69.3921 33.8195 68.905 38.2679 66.7784 40.331C65.9915 41.0942 65.0732 41.4221 63.9906 41.2972C63.8862 41.2855 63.7799 41.2894 63.6755 41.2699C60.5243 40.7136 59.9192 40.2529 59.3392 37.1533C59.3141 37.0148 59.2754 36.8742 59.2715 36.7337C59.2619 36.3082 59.0376 36.2086 58.651 36.2399C56.6906 36.398 54.7284 36.5385 52.7681 36.6849C49.4061 36.9367 46.0442 37.1904 42.6822 37.4403C40.72 37.5867 38.7597 37.733 36.7974 37.8677C36.3528 37.899 35.883 37.9946 35.4596 37.5183L35.4654 37.5203ZM35.2837 36.2633C35.3552 36.2555 35.4248 36.2457 35.4963 36.2379C35.4577 35.465 35.4132 34.694 35.3823 33.921C35.3726 33.677 35.0401 33.3042 35.4751 33.2203C35.8346 33.15 35.8211 33.5872 35.8714 33.8429C35.939 34.1884 35.9816 34.5437 35.997 34.895C36.026 35.4962 36.0473 36.1013 36.0299 36.7025C36.0164 37.2119 36.202 37.4032 36.7162 37.3466C37.4837 37.2626 38.257 37.2314 39.0265 37.1748C45.5396 36.6907 52.0527 36.1969 58.5678 35.7343C59.3102 35.6816 59.78 35.4611 60.1009 34.7271C60.6557 33.4662 61.3169 32.2521 61.9626 31.0342C62.4537 30.109 63.0858 29.3028 64.1588 29.0237C64.8393 28.8461 65.5314 28.7427 66.239 28.7251C67.1032 28.7056 67.7121 29.0803 68.1394 29.8181C68.5164 30.4662 68.7619 31.161 68.9514 31.8852C69.2491 33.0173 69.2974 34.1826 69.3593 35.3537C70.1944 35.1234 70.2118 35.1214 70.0726 34.4226C70.0146 34.1299 70.0842 33.8644 70.1036 33.5853C70.2099 32.0316 70.4922 30.4876 70.4342 28.9222C70.4071 28.2059 70.2776 27.5637 69.7556 26.9781C68.9958 26.1252 68.5376 25.0692 68.3385 23.9352C68.2148 23.2403 68.1896 22.5259 68.1181 21.8213C68.0659 21.2923 68.0234 20.7868 67.4163 20.533C67.0896 20.3964 66.9756 20.0021 66.8209 19.682C66.1713 18.3449 65.5604 16.9884 64.8432 15.6884C64.1801 14.4841 63.6098 13.2193 62.7205 12.1477C62.0941 11.3943 61.4136 10.6604 60.938 9.81519C60.242 8.58159 59.1845 8.37665 57.9318 8.25953C56.1474 8.09362 54.3553 8.1268 52.5747 7.93161C51.0997 7.76961 49.6284 7.82231 48.1998 8.29076C46.2974 8.91537 44.8282 10.1158 43.6334 11.7222C41.9051 14.0469 40.1477 16.3501 38.518 18.7451C38.1681 19.2584 37.735 19.5297 37.1261 19.5356C36.8109 19.5395 36.4939 19.5649 36.1788 19.5746C32.4688 19.6859 28.8343 19.1081 25.2133 18.384C23.7788 18.0971 22.3656 17.5271 20.906 17.5876C19.4426 17.6481 18.0139 18.1244 16.5891 18.5109C16.5543 18.5206 16.5195 18.5245 16.4866 18.5343C14.1686 19.2409 12.042 20.2871 10.3234 22.0594C9.90579 22.4908 9.54041 22.9085 9.57327 23.6033C9.639 25.0048 8.79997 26.0705 7.88167 26.8942C7.11997 27.5774 6.80291 28.3035 6.66952 29.2326C6.53226 30.1851 6.51679 30.187 7.45442 30.4427C11.1121 31.4382 14.7718 32.4259 18.4276 33.4291C18.8606 33.5482 19.3343 33.5833 19.6842 33.9249C18.9496 35.3303 17.8263 35.9763 16.4557 35.7011C15.5973 35.5294 14.7312 35.3869 13.8941 35.1097C12.5621 34.6686 11.2359 34.1728 9.87099 33.8703C8.27992 33.517 7.1741 32.7382 6.73718 31.1103C6.72558 31.0634 6.64438 31.0361 6.56512 30.9776C6.49552 31.9067 6.66178 32.7596 7.09483 33.558C7.21083 33.7727 7.31329 34.0108 7.54335 34.1338C8.49838 34.6432 9.39928 35.2346 10.4587 35.5645C11.6303 35.9295 12.8501 36.1637 13.9772 36.6322C16.2314 37.5671 18.5668 38.1449 20.9544 38.5548C21.6213 38.67 22.2806 38.5899 22.9417 38.4611C23.7093 38.3108 24.1249 37.9321 24.2815 37.0928C24.6101 35.3244 25.3081 33.7258 26.6613 32.4571C27.5332 31.6393 28.5714 31.1454 29.625 30.6633C31.015 30.027 32.9348 30.5111 33.8995 31.6978C33.9884 31.8071 34.0831 31.932 33.9652 32.0648C33.855 32.1916 33.6945 32.1663 33.5863 32.0726C33.074 31.6256 32.4708 31.3387 31.8715 31.0459C31.0034 30.6243 30.3384 30.7492 29.5322 31.5085C32.755 31.5124 34.5761 33.2125 35.2875 36.2672L35.2837 36.2633ZM27.4288 37.4442C27.4114 38.9491 27.744 39.9992 28.3665 40.7468C29.3157 41.8847 30.7618 42.0545 31.9411 41.1645C33.8492 39.724 34.2126 36.2691 32.6486 34.4617C31.7071 33.3745 30.3171 33.2086 29.1572 34.0674C27.9218 34.9828 27.5023 36.2984 27.4288 37.4442ZM67.078 35.3244C67.1322 34.5163 66.9968 33.6848 66.5908 32.9158C65.8562 31.5241 64.5281 31.4206 63.7084 32.7499C62.6547 34.4578 62.5271 36.2906 63.4048 38.1117C64.0931 39.5405 65.3864 39.603 66.2757 38.2932C66.8673 37.4227 67.1167 36.437 67.078 35.3225V35.3244ZM39.2662 8.9993C37.476 8.88999 35.6839 8.78069 33.8937 8.67333C35.6781 8.91146 37.4586 9.21791 39.2662 8.9993Z" fill="#333333"/>
<path d="M56.632 9.39488C56.982 12.596 57.2971 15.719 57.9177 18.803C58.1264 19.8375 58.0259 19.9585 56.9394 19.9605C55.2904 19.9605 53.6394 19.9702 51.9922 19.939C50.3045 19.9058 48.6264 20.0893 46.9464 20.1147C45.7033 20.1342 44.613 20.2162 43.8339 21.3463C43.6154 21.6645 43.1998 21.7718 42.7841 21.7172C42.4439 21.6723 42.1848 21.4907 42.0205 21.2077C41.8271 20.8739 42.15 20.708 42.3105 20.4953C42.411 20.3606 42.5927 20.2767 42.5734 19.9975C42.2428 19.8082 41.8619 19.9253 41.4966 19.9331C40.9707 19.9429 40.441 20.0112 39.921 19.9702C39.0955 19.9058 38.9389 19.5798 39.3274 18.8654C39.3603 18.803 39.4048 18.7483 39.4434 18.6898C40.9282 16.41 42.4651 14.1614 44.1664 12.0475C45.4269 10.4801 46.9019 9.09234 48.986 8.63365C49.4345 8.5341 49.885 8.46188 50.3393 8.45212C52.8738 8.39747 55.3986 8.59266 57.8558 9.2036C59.7156 9.66619 61.2061 10.8217 62.2713 12.4379C63.1432 13.7593 64.0596 15.0593 64.7111 16.5212C65.1016 17.3957 65.3588 18.315 65.6971 19.2051C65.8672 19.6521 65.6275 19.9078 65.1983 19.9097C63.5492 19.9156 61.9002 19.8999 60.2511 19.8804C59.8064 19.8746 59.704 19.5252 59.5996 19.1699C59.2284 17.911 59.0815 16.6052 58.8108 15.3267C58.43 13.529 58.0491 11.7293 57.6857 9.92775C57.5697 9.3578 57.2081 9.30119 56.634 9.39488H56.632ZM47.0508 19.2129C47.6134 19.1856 48.0754 19.1992 48.524 19.1309C49.0363 19.0528 49.1465 18.7444 48.8468 18.3013C48.5684 17.8875 48.1779 17.5772 47.8048 17.2571C46.467 16.1094 45.8522 16.2031 44.8836 17.7021C44.7696 17.8797 44.6729 18.0691 44.5762 18.2584C44.3868 18.6254 44.5066 18.8362 44.8875 18.9826C45.6299 19.2656 46.38 19.3593 47.0527 19.2168L47.0508 19.2129ZM42.9736 21.4458C43.049 21.4224 43.1553 21.4049 43.2462 21.358C43.9131 21.0067 44.3674 20.4172 44.8372 19.8531C44.9938 19.6657 44.8836 19.4452 44.7058 19.2988C44.5028 19.1348 44.2824 19.047 44.0523 19.2617C43.569 19.7145 43.0818 20.1654 42.6062 20.626C42.4613 20.7666 42.266 20.9227 42.4129 21.1628C42.5289 21.3521 42.728 21.4302 42.9755 21.4458H42.9736Z" fill="#333333"/>
<path d="M25.1727 26.4625C25.1669 27.7429 24.2428 29.0429 23.0345 29.4684C21.7334 29.9271 20.587 29.1443 20.5367 27.7605C20.4903 26.4898 21.4782 25.0649 22.6942 24.657C24.0746 24.1924 25.1785 24.9966 25.1727 26.4625Z" fill="#333333"/>
<path d="M21.6817 32.7647C21.1772 32.7803 20.6996 32.6788 20.284 32.388C19.7794 32.0347 19.7369 31.5916 20.1351 31.1309C20.8021 30.358 22.747 30.196 23.5589 30.844C24.0384 31.2266 24.05 31.7829 23.5551 32.1889C23.0137 32.6319 22.3584 32.7451 21.6837 32.7647H21.6817Z" fill="#333333"/>
<path d="M38.9303 21.5693C39.0773 22.4535 39.1643 23.2792 39.1739 24.1185C39.201 26.5935 39.085 29.0724 39.2455 31.5454C39.2957 32.3203 39.375 33.0933 39.489 33.8604C39.6418 34.8871 39.779 35.0003 40.7959 35.2189C40.9931 35.2618 41.2232 35.1916 41.3836 35.3809C40.0942 35.701 39.4059 35.2696 39.2223 33.9892C38.9535 32.1349 38.8124 30.2709 38.8221 28.3931C38.8317 26.3417 38.882 24.2903 38.7776 22.2388C38.7679 22.0378 38.7177 21.8211 38.9323 21.5693H38.9303Z" fill="#333333"/>
<path d="M10.1094 25.9236C10.7435 25.8514 11.2983 26.1129 11.8648 26.2125C12.2456 26.2788 12.4486 26.2749 12.7135 25.9002C13.3031 25.0648 13.8232 25.1604 14.1422 26.1754C14.3045 26.6907 14.5791 26.7785 15.0237 26.8644C15.9033 27.0342 16.812 27.0674 17.7051 27.3738C17.5679 27.7135 17.3417 27.5339 17.1832 27.5124C16.5259 27.4226 15.8647 27.3387 15.219 27.1962C14.6448 27.0694 14.2369 27.0362 13.8309 27.6608C13.4094 28.3088 12.5549 28.0531 12.4873 27.2704C12.4351 26.6497 12.1296 26.5638 11.6656 26.4799C11.1862 26.394 10.7145 26.2574 10.2428 26.1305C10.2002 26.1188 10.179 26.0309 10.1113 25.9216L10.1094 25.9236ZM13.9295 26.6692C13.9024 26.2398 13.8618 25.8065 13.4481 25.7733C13.0692 25.744 12.872 26.1032 12.8179 26.4877C12.7947 26.6614 12.7251 26.839 12.7425 27.0069C12.7715 27.2743 12.7657 27.5964 13.1465 27.6471C13.4829 27.692 13.6743 27.4792 13.7942 27.2138C13.8792 27.0264 13.8947 26.8097 13.9276 26.6673L13.9295 26.6692Z" fill="#333333"/>
<path d="M54.3644 24.3623C49.7459 24.5126 45.137 24.5848 40.4102 25.1118C41.574 24.4696 52.3519 23.8938 54.3644 24.3623Z" fill="#333333"/>
<path d="M8.28516 28.6543C11.4634 29.3589 14.6417 30.0636 17.82 30.7682C16.9732 30.9946 9.25759 29.3179 8.28516 28.6543Z" fill="#333333"/>
<path d="M43.0703 35.164C44.2419 35.0723 45.3651 34.9376 46.4922 34.9083C48.1432 34.8654 49.7613 34.6136 51.3737 34.2837C52.0542 34.1452 52.6709 33.8563 53.3108 33.5889C52.9802 34.1354 52.4369 34.3169 51.8898 34.4594C50.3974 34.8498 48.8778 35.0703 47.337 35.1582C46.0804 35.2304 44.8257 35.3339 43.571 35.4158C43.4164 35.4256 43.2269 35.4822 43.0722 35.1621L43.0703 35.164Z" fill="#333333"/>
<path d="M36.4876 24.7383C33.2398 25.1033 29.9745 25.3102 26.7305 25.7084C29.9455 25.0057 33.203 24.7383 36.4876 24.7383Z" fill="#333333"/>
<path d="M59.785 25.668C58.8338 28.3967 56.7594 30.2471 54.8281 32.2107C56.4521 30.0051 58.6366 28.2269 59.785 25.668Z" fill="#333333"/>
<path d="M10.0269 24.2529C11.6315 24.5223 13.2361 24.7936 14.8407 25.063C14.8272 25.143 14.8137 25.2211 14.8001 25.3011C13.1781 25.1332 11.5832 24.8131 9.98438 24.5047C9.99791 24.4208 10.0134 24.3369 10.0269 24.2529Z" fill="#333333"/>
<path d="M16.4453 25.4294C17.6575 25.3787 18.8252 25.6285 19.9851 25.9311C18.7807 25.9486 17.6053 25.7339 16.4453 25.4294Z" fill="#333333"/>
</svg>
