<svg width="77" height="47" viewBox="0 0 77 47" fill="none" xmlns="http://www.w3.org/2000/svg">
<g clip-path="url(#clip0_3183_2865)">
<ellipse cx="38.6711" cy="40.5994" rx="38.3589" ry="5.29397" transform="rotate(-4.58636 38.6711 40.5994)" fill="#D9D9D9"/>
<path d="M69.3423 30.6815C69.7795 30.664 70.2183 30.6418 70.6523 30.5973C71.2421 30.5354 71.2502 30.5163 71.2759 29.8986C71.2807 29.7827 71.2759 29.6684 71.2775 29.5525C71.3241 22.8898 71.3723 16.227 71.4189 9.56272C71.4286 8.09076 71.4237 6.62039 71.4414 5.14843C71.4462 4.74511 71.3675 4.55139 70.8741 4.51487C70.8017 4.51011 70.731 4.50376 70.6587 4.4974L70.686 4.14648C70.8821 4.16236 71.0782 4.17665 71.2743 4.18459C71.779 4.20682 71.9397 4.45453 71.9509 4.88485C71.9606 5.25958 71.959 5.63432 71.959 6.00906V17.8641H71.787C71.787 22.0752 71.787 26.2862 71.7854 30.4973C71.7854 30.8101 71.7934 31.1118 71.5813 31.4023C71.4286 31.6104 71.4109 31.8692 71.4093 32.1296L71.0685 32.1264C71.0685 31.7961 70.895 31.6691 70.5912 31.6723L70.5831 31.3626C70.7889 31.3468 70.9882 31.288 71.1441 31.0752C70.8628 30.9133 70.596 30.9689 70.3388 30.9784C69.4355 31.0149 68.5323 31.0752 67.629 31.107C65.2679 31.1896 62.9052 31.2515 60.5441 31.3388L60.5312 31.0228C63.4693 30.9117 66.4058 30.7958 69.3423 30.6815Z" fill="#333333"/>
<path d="M30.0297 38.26C29.7742 38.2807 29.5009 38.2569 29.239 38.2743L29.2148 37.9202C29.7854 37.8805 30.3544 37.8297 30.9234 37.7932C33.0482 37.6598 35.1746 37.5375 37.301 37.3994C39.601 37.2501 41.9011 37.0914 44.1995 36.9294C46.6441 36.7579 49.0872 36.5769 51.5302 36.4054C51.781 36.3879 51.9578 36.326 52.088 36.0815C52.6409 35.0351 53.2131 33.9982 53.6583 32.901C53.8254 32.4881 53.7483 32.3674 53.2999 32.3754C52.4834 32.3912 51.6685 32.4627 50.852 32.4929C49.0791 32.5564 47.3063 32.6088 45.5351 32.6707L45.5239 32.3357C46.4625 32.3007 47.4028 32.2658 48.343 32.2277C53.385 32.0276 58.4271 31.8006 63.4691 31.5973C65.6839 31.5084 67.9003 31.4528 70.1168 31.3655C70.2662 31.3591 70.427 31.3734 70.5845 31.3623L70.5925 31.6719C70.5748 31.6719 70.5588 31.6719 70.5411 31.6735C70.1055 31.6989 69.6699 31.7466 69.2344 31.7624C65.3014 31.9085 61.3684 32.0467 57.4354 32.1944C56.6783 32.2229 55.9213 32.2658 55.1659 32.3309C54.7898 32.3627 54.3735 32.4373 54.1871 32.7962C53.7386 33.6568 53.3416 34.5444 52.8337 35.6099C55.3829 35.4463 57.7054 35.3002 60.0263 35.143C60.4088 35.1176 60.629 34.8842 60.7897 34.5317C60.9505 34.1792 61.0919 33.8267 61.4857 33.5822C62.7265 32.8136 63.9496 32.9311 65.1005 33.652C65.5826 33.9537 65.8334 33.9442 66.1757 33.5583C66.6354 33.0407 67.2638 33.0137 67.8634 33.1503C68.8422 33.3741 69.633 33.8823 70.001 34.8747C70.0701 35.0636 70.1344 35.2574 70.2341 35.4304C70.3353 35.6051 70.5347 35.5813 70.7082 35.5702C70.8834 35.5591 70.9445 35.4447 70.9509 35.278C70.9863 34.2427 71.02 33.2074 71.0683 32.1737C71.0683 32.1578 71.0683 32.142 71.0683 32.1261L71.409 32.1292C71.409 32.2229 71.4106 32.3182 71.409 32.4103C71.3929 33.39 71.3785 34.3713 71.3865 35.3526C71.3897 35.7433 71.3704 36.0561 70.8465 35.9925C70.398 35.937 70.3064 36.1942 70.3209 36.5705C70.3482 37.3073 70.1746 38.0028 69.7985 38.6395C69.0254 39.9464 67.5082 40.2671 66.2818 39.3493C65.9636 39.1111 65.8109 39.154 65.5634 39.4001C64.8931 40.0686 64.0766 40.2687 63.1524 40.0575C63.0673 40.0385 62.9837 40.013 62.8969 39.9972C62.3536 39.9051 61.7477 39.9067 61.3603 39.4732C60.8106 38.8587 60.4795 38.1139 60.3895 37.2898C60.3429 36.8611 60.3301 36.4276 60.3333 35.9973C60.3349 35.7194 60.2851 35.5575 59.9524 35.5781C57.7102 35.7194 55.4665 35.8465 53.2259 35.9973C52.9479 36.0164 52.6119 36.064 52.4673 36.3482C52.2567 36.7643 51.8806 36.796 51.5045 36.8119C48.7641 36.9246 46.043 37.2803 43.3026 37.4042C40.2729 37.5423 37.2496 37.8123 34.2215 38.0123C32.8248 38.1044 31.4232 38.1473 30.0281 38.26H30.0297ZM69.1411 36.453C69.0833 35.9322 69.0222 35.4146 68.7216 34.9715C68.3713 34.4555 67.9003 34.4396 67.5114 34.9128C66.907 35.6464 66.8813 37.3264 67.4615 38.0949C67.8425 38.5998 68.27 38.5998 68.659 38.079C69.019 37.5963 69.0849 37.0231 69.1411 36.453ZM65.4219 36.7611C65.3673 36.1752 65.2821 35.5797 64.9285 35.0621C64.3772 34.2554 63.6057 34.2268 63.0046 34.9874C62.2909 35.8909 62.3424 37.6789 63.1074 38.5331C63.6748 39.1667 64.3434 39.1477 64.8706 38.4776C65.2612 37.979 65.3496 37.3819 65.4219 36.7611Z" fill="#333333"/>
<path d="M26.2486 3.37973C23.767 2.98118 21.2822 2.60644 18.7812 2.3635L18.8118 2.05545C19.1863 2.08721 19.5158 2.01734 19.8758 1.81092C20.6939 1.3409 21.5586 1.02968 22.449 0.797852L22.5342 1.11066C21.9813 1.26945 21.7049 1.72835 21.2452 2.18089C22.2803 2.36508 23.1932 2.48894 24.0853 2.69536C24.9869 2.90496 25.9626 2.78111 26.9124 3.24477C26.636 3.46389 26.4399 3.4099 26.2486 3.37973Z" fill="#333333"/>
<path d="M17.4331 35.3116C17.2547 35.4069 17.012 35.5339 17.0988 35.7514C17.1968 35.9944 17.4363 35.8769 17.6195 35.788C17.724 35.7371 17.8269 35.6832 17.9297 35.6292C19.9742 34.5462 22.8416 35.761 23.6982 37.4266C23.7995 37.622 23.8445 37.8681 24.2463 38.0539C24.1949 37.1043 24.1836 36.2532 24.0904 35.41C24.0374 34.9242 23.7368 34.7844 23.1325 34.7606C21.6731 34.7034 20.2249 34.8352 18.7768 34.9718C18.3155 35.0147 17.851 35.0877 17.4331 35.3116ZM11.7465 39.8053L11.7305 39.5671C11.7948 39.5623 11.8703 39.5496 11.9539 39.5338C12.9954 39.3273 14.0466 39.3638 15.0961 39.3353C15.7679 39.3162 15.776 39.3115 15.8547 38.6715C15.9463 37.9284 16.0428 37.1869 16.2099 36.4533C16.4494 35.4005 17.0923 34.8051 18.1789 34.6574C19.8006 34.4367 21.4255 34.3017 23.065 34.3271C24.0984 34.343 24.5372 34.7447 24.5742 35.788C24.5951 36.3929 24.6015 36.9995 24.6112 37.6045C24.6224 38.3968 25.0258 38.7636 25.823 38.7049C27.2053 38.6048 27.0751 38.851 27.0912 37.3123C27.186 28.398 26.9417 19.4837 26.9514 10.5693V9.50229C27.0414 9.58803 27.0606 9.67219 27.0623 9.75635C27.1153 13.5641 27.2182 17.3702 27.2053 21.1795C27.1876 26.5751 27.2262 31.9691 27.2439 37.3647C27.2439 37.6521 27.2005 37.9459 27.3146 38.2206C27.358 38.3238 27.4641 38.3952 27.5927 38.3968C27.7373 38.3968 27.7968 38.3016 27.8032 38.1793C27.8193 37.9205 27.8289 37.6616 27.8273 37.4012C27.7678 26.2083 27.7068 15.0138 27.6473 3.82087C27.6425 2.9269 27.6505 2.03134 27.6393 1.13736C27.6296 0.432349 27.62 0.425997 26.8806 0.456167C25.4469 0.516506 24.0486 0.802323 22.6471 1.08179C22.6069 1.08973 22.5699 1.09926 22.533 1.11037L22.4478 0.79756C23.433 0.537148 24.4488 0.376773 25.4646 0.205283C27.3966 -0.121819 29.3028 0.103659 31.2171 0.287852C33.3644 0.494276 35.5133 0.705463 37.6606 0.91665C39.7501 1.12149 41.8395 1.33109 43.929 1.53433C45.9606 1.73282 47.9922 1.92495 50.0254 2.12344C52.1727 2.33303 54.32 2.54581 56.4689 2.75382C58.5005 2.95072 60.5337 3.14126 62.5653 3.33816C64.6837 3.54299 66.8037 3.75259 68.9221 3.96061C69.5104 4.01936 70.097 4.09716 70.6853 4.14639L70.658 4.49731C68.6071 4.3417 66.5594 4.13527 64.5134 3.94155C62.5396 3.75418 60.5659 3.56205 58.5922 3.36833C56.5027 3.16349 54.4148 2.95072 52.3254 2.74906C50.2649 2.54899 48.2027 2.36003 46.1422 2.16154C43.966 1.95194 41.7881 1.73917 39.6119 1.52481C37.5224 1.31838 35.4345 1.10084 33.3451 0.899184C31.778 0.748336 30.2077 0.619718 28.6406 0.467282C28.2275 0.427585 28.0507 0.557791 28.0668 0.984929C28.0925 1.64707 28.0813 2.31239 28.0813 2.97454C28.0813 12.4367 28.1456 21.8972 28.2452 31.3578C28.2452 31.5023 28.2549 31.6468 28.2516 31.7897C28.2436 32.1247 28.4252 32.2533 28.7419 32.2343C29.1501 32.2105 29.5567 32.1771 29.965 32.1613C36.4986 31.912 43.0321 31.6642 49.5657 31.4165V31.4054C51.7821 31.3324 54.0002 31.2689 56.2166 31.1863C57.6551 31.1323 59.0936 31.0783 60.5305 31.0227L60.5434 31.3387C56.2584 31.4991 51.975 31.6706 47.69 31.8421C43.6381 32.0041 39.5877 32.174 35.5358 32.3296C33.4078 32.4121 31.2797 32.4661 29.1517 32.5423C28.8544 32.5535 28.5152 32.4899 28.2645 32.8329C28.4638 33.0235 28.6133 32.9663 28.7531 32.96C31.5224 32.852 34.2902 32.7377 37.0595 32.636C39.8803 32.5312 42.701 32.4391 45.5218 32.3359L45.533 32.671C44.9126 32.6916 44.2938 32.7138 43.675 32.7392C39.9429 32.8869 36.2125 33.0552 32.4804 33.2108C31.1978 33.2648 29.9152 33.3093 28.631 33.3569C28.4911 33.3617 28.3224 33.3172 28.2902 33.5205C28.2549 33.7475 28.3979 33.8253 28.5972 33.8349C28.7129 33.8412 28.8303 33.846 28.9476 33.8412C31.3971 33.7444 33.8466 33.6443 36.296 33.5506C38.6877 33.4585 41.0793 33.3649 43.4709 33.2886C43.6911 33.2823 43.9901 33.1553 44.1428 33.4728C43.8856 33.7221 43.577 33.684 43.2941 33.6967C40.3207 33.8222 37.3456 33.9381 34.3705 34.054C32.5334 34.1255 30.6963 34.189 28.8592 34.2652C28.6406 34.2747 28.3288 34.2191 28.3111 34.5431C28.2918 34.8956 28.6165 34.8273 28.8286 34.8305C29.1774 34.8368 29.5278 34.8067 29.8782 34.7908C30.812 34.7495 31.7442 34.7034 32.6781 34.6733C32.8227 34.6685 33.051 34.597 33.0622 34.9035C32.789 35.0877 32.4611 35.0766 32.1461 35.0861C31.3296 35.1115 30.5115 35.1179 29.695 35.1385C29.3735 35.1465 29.0537 35.1623 28.7338 35.1925C28.5361 35.2116 28.2918 35.2306 28.3191 35.5148C28.3416 35.7514 28.5586 35.7181 28.7258 35.726C28.8126 35.7308 28.901 35.7244 28.9878 35.7197C30.9406 35.6323 32.8934 35.5482 34.8479 35.4577C36.5098 35.3799 38.1701 35.2957 39.832 35.2163C39.9767 35.21 40.1503 35.2084 40.168 35.4005C40.1856 35.5911 40.0249 35.6196 39.8754 35.6339C39.7887 35.6419 39.7003 35.6387 39.6135 35.6435C36.0871 35.8134 32.5607 35.9801 29.0344 36.1627C28.7628 36.177 28.279 35.9944 28.3127 36.5089C28.3416 36.9376 28.766 36.7454 29.0231 36.7534C30.7477 36.8058 32.4643 36.6232 34.1857 36.5787C34.4895 36.5708 34.8157 36.4977 35.232 36.7327C34.7949 37.044 34.4075 36.9804 34.0394 36.9947C32.2891 37.0583 30.5388 37.1154 28.7869 37.1742C28.5056 37.1837 28.2597 37.2186 28.2693 37.5934C28.2806 37.9951 28.5715 37.9618 28.827 37.9459C28.9556 37.9379 29.0842 37.93 29.2128 37.9205L29.2369 38.2746C28.8833 38.2968 28.549 38.3937 28.3063 38.77C27.6537 38.6684 27.0864 39.0637 26.4515 39.0764C26.0432 39.0844 25.6334 39.0907 25.2267 39.1146C24.3926 39.1622 24.3186 39.2416 24.2527 40.0752C24.1017 41.9934 22.7982 43.5114 20.9932 43.8845C20.4371 43.9989 19.8729 43.975 19.3393 43.8591C18.1756 43.6035 16.9927 43.3605 16.2469 42.2712C15.8467 41.6869 15.6506 41.0248 15.4079 40.3801C15.1716 39.7497 15.1877 39.7338 14.4998 39.7402C13.6238 39.7497 12.7495 39.7767 11.8735 39.7989C11.8301 39.8005 11.7883 39.8021 11.7465 39.8053ZM22.4687 39.475C22.4751 38.978 22.2404 38.2285 21.8804 37.7426C21.1555 36.7597 19.934 36.6899 19.1063 37.5823C18.1338 38.6318 18.0792 40.5643 18.9889 41.6631C19.7202 42.5444 20.8534 42.5809 21.6522 41.7488C22.226 41.1502 22.4108 40.4055 22.4671 39.475H22.4687Z" fill="#333333"/>
<path d="M9.44285 33.0858C9.56983 33.3796 9.88807 33.3002 10.1147 33.3875C10.3461 33.4764 10.5856 33.6067 10.9119 33.5543C11.0437 33.1462 10.9971 32.773 10.981 32.4078C10.9665 32.0553 10.1983 31.7139 9.9186 31.9172C9.80931 31.9966 9.39785 32.9826 9.44285 33.0858ZM9.07639 31.0565C9.41553 29.4067 9.21622 27.7268 9.34159 26.0627C9.37374 25.6371 9.38017 25.21 9.38017 24.7812H9.68394C9.6743 27.0741 9.78199 29.3781 9.42839 31.7107V31.7155C9.6968 31.4567 9.96039 31.4138 10.314 31.4948C10.9633 31.6456 10.9746 31.6107 10.9987 30.9311C11.0099 30.6135 11.0019 30.2959 11.0067 29.9784C11.0083 29.8339 11.0067 29.6878 11.0357 29.548C11.0517 29.4782 11.1305 29.3877 11.1964 29.3718C11.3362 29.3385 11.3973 29.4464 11.4134 29.5687C11.4278 29.683 11.4327 29.7989 11.431 29.9133C11.4118 31.6726 11.4423 33.432 11.3587 35.1914C11.3475 35.4486 11.3378 35.7042 11.3298 35.9615L10.9617 35.9535C10.9633 35.7154 10.9617 35.4788 10.9649 35.2406C10.9746 34.0608 10.9714 34.0687 9.87039 33.6988C9.60358 33.6098 9.2773 33.6225 9.09568 33.3462C8.92852 33.0922 9.1455 32.8159 9.11175 32.5158C8.58135 32.9175 7.98827 33.1478 7.3775 33.2208L7.34375 32.9445C8.1715 32.8762 8.73886 32.3506 9.00406 31.3947C9.0346 31.2836 9.05228 31.1693 9.07639 31.0565Z" fill="#333333"/>
<path d="M4.05921 37.0837C6.1133 37.7268 8.12722 38.4794 10.1685 39.1575C10.3758 39.2257 10.5863 39.3893 10.8628 39.2464C10.9833 38.8732 10.9255 38.4699 10.9223 38.0745C10.9174 37.3378 10.911 37.325 10.2006 37.1043C9.22981 36.801 8.2574 36.5025 7.2834 36.2056L7.35733 35.969C8.28955 36.2548 9.22498 36.5295 10.1652 36.7852C10.9078 36.9868 10.9367 36.9694 10.956 36.1913L10.9608 35.9531L11.3289 35.9611C11.3 36.9725 11.3032 37.9856 11.3128 38.9971C11.3177 39.4433 11.4044 39.5894 11.7307 39.5671L11.7468 39.8053C11.5925 39.8164 11.4446 39.8466 11.2935 39.9387C9.82771 40.8358 7.55342 40.269 6.92658 38.797C6.7755 38.4429 6.51833 38.2794 6.15991 38.1634C5.41896 37.9269 4.69408 37.6331 3.95312 37.3949L4.05921 37.0837Z" fill="#333333"/>
<path d="M14.5233 2.92366C12.3406 3.69854 10.3685 4.79259 8.35455 5.7993C8.20025 5.87552 8.0556 5.98667 8.07167 6.25184C8.44134 6.28519 8.68243 6.10258 8.94442 5.99937C10.2961 5.47378 11.6366 4.92438 12.9931 4.41308C13.8145 4.10345 14.1311 3.83827 14.5233 2.92366ZM5.89542 7.69998C5.52414 7.86353 5.15447 8.03661 4.79926 8.23192C4.26725 8.52568 3.95223 8.9687 3.87829 9.58638C4.25118 9.67054 4.49709 9.48475 4.75586 9.38313C7.18445 8.41929 9.59376 7.40464 12.0432 6.49955C12.8726 6.19309 13.1378 5.68497 13.186 4.88468C12.8694 4.8037 12.691 4.92914 12.5045 4.99901C10.2736 5.83264 8.07328 6.74091 5.89542 7.69998ZM3.09876 20.1553C3.03447 19.8758 2.95411 19.5963 2.6214 19.3836C2.42371 19.6996 2.50086 19.9933 2.49925 20.2712C2.48961 23.1548 2.51693 26.0383 2.4655 28.9203C2.45264 29.6714 2.5555 30.2494 3.29646 30.5733C3.32057 30.5844 3.35432 30.5733 3.38325 30.5733C3.50219 30.351 3.43629 30.1192 3.43468 29.8921C3.41379 27.4452 3.16788 25.0015 3.38164 22.5498C3.45076 21.7479 3.28039 20.9429 3.09876 20.1553ZM2.65033 13.4656C2.80302 12.3255 2.89946 11.1727 3.25306 10.0659C3.33182 9.81821 3.41057 9.57209 3.48451 9.32279C3.70631 8.5876 4.15796 8.06996 4.89409 7.78414C5.38109 7.59518 5.84238 7.34112 6.32135 7.12835C6.90318 6.86794 7.53002 6.68533 7.72771 5.95491C7.79522 5.7072 8.05078 5.55 8.28865 5.43091C10.3138 4.4115 12.3197 3.3508 14.4333 2.50922C15.7978 1.96617 17.1913 1.79786 18.6347 2.03286C18.6958 2.04239 18.7536 2.05033 18.8115 2.05509L18.7809 2.36314C18.3518 2.32344 17.9227 2.28533 17.4935 2.25199C16.1241 2.1456 14.8576 2.87761 14.4172 4.10662C14.4686 4.12727 14.5201 4.16696 14.5731 4.16696C16.9101 4.2146 19.2326 4.43373 21.5487 4.72431C22.1562 4.80053 22.767 4.84499 23.3761 4.91326C23.4886 4.92597 23.6156 4.98948 23.5529 5.13874C23.5256 5.20226 23.4308 5.26895 23.3601 5.27689C23.217 5.29118 23.0708 5.27054 22.9261 5.25625C21.1002 5.06252 19.2744 4.8561 17.4469 4.67508C16.6047 4.59093 15.7593 4.53853 14.9138 4.49724C13.9752 4.44961 13.7678 4.61633 13.5043 5.54365C13.4721 5.6548 13.4287 5.76278 13.4094 5.87552C13.051 8.09219 12.5029 10.2739 12.2024 12.5017C11.9098 14.6723 11.5273 16.8303 11.598 19.0358C11.6318 20.1013 11.5932 21.1699 11.5627 22.237C11.553 22.5561 11.6093 22.9134 11.238 23.1691C11.111 21.4875 11.2412 19.798 11.1191 17.9958C10.5276 18.4721 10.354 18.9882 10.2142 19.5138C9.87825 20.7745 9.75609 22.0623 9.70948 23.3612C9.6918 23.8344 9.68537 24.3076 9.68377 24.7823H9.37999C9.37999 23.8836 9.34785 22.9833 9.42982 22.0909C9.5809 20.4649 9.68698 18.8008 10.8892 17.3749C8.23883 17.8259 5.58843 18.2752 2.7982 18.75C3.65167 19.987 3.70149 21.2525 3.71596 22.5196C3.73203 24.0773 3.70631 25.635 3.71596 27.1927C3.72078 28.0867 3.70953 28.9839 3.79632 29.8731C3.99241 31.904 4.33636 32.2739 6.33581 32.8249C6.39207 32.8408 6.44671 32.863 6.50297 32.8757C6.80674 32.9424 7.08802 32.9647 7.34357 32.944L7.37733 33.2203C5.96453 33.3902 4.46012 32.7058 3.45236 31.2974H3.44915C3.49094 31.5451 3.53433 31.7372 3.55362 31.9309C3.58255 32.2231 3.43147 32.3327 3.14216 32.3565C2.49121 32.4089 2.48961 32.42 2.48318 33.0647C2.47996 33.3823 2.49764 33.6998 2.48157 34.0158C2.4655 34.3286 2.60854 34.4811 2.90589 34.5652C3.46522 34.724 4.01812 34.9082 4.57103 35.0876C5.49842 35.3877 6.42582 35.6847 7.35804 35.9689L7.28411 36.2055C6.56244 35.9832 5.83917 35.7641 5.11589 35.5449C4.28493 35.2941 3.47808 34.967 2.6198 34.805C2.3787 35.9324 2.83517 36.6993 4.05991 37.0836L3.95383 37.3948C3.8365 37.3567 3.71917 37.3202 3.60184 37.2853C2.62944 36.9994 2.046 36.1388 2.05243 35.2242V34.705C2.05243 29.5412 2.08136 24.3774 2.03957 19.2152C2.0235 17.2685 2.39317 15.3758 2.65033 13.4656ZM3.39129 11.0456C3.09394 13.2687 2.63748 15.471 2.44782 17.7084C2.38996 18.3896 2.43496 18.4372 3.07626 18.3276C5.57075 17.8989 8.06524 17.467 10.5597 17.0319C11.2862 16.9049 11.2621 16.897 11.3537 16.1618C11.6237 13.9943 11.8455 11.8189 12.3068 9.67847C12.4772 8.89089 12.6042 8.09536 12.7183 7.47292H12.7167C12.7585 6.7028 12.691 6.65675 12.0931 6.86794C12.0384 6.88699 11.9806 6.90128 11.9275 6.92351C9.36392 7.94928 6.80996 8.99887 4.23028 9.98176C3.66774 10.1961 3.45879 10.5375 3.39129 11.0456Z" fill="#333333"/>
<path d="M13.1931 16.9586C13.0773 16.9761 12.9632 16.9983 12.8475 17.0094C12.4955 17.0459 12.3926 16.8998 12.4409 16.5505C12.6257 15.2103 12.7864 13.867 12.9584 12.5252C13.1818 10.7833 13.4068 9.04145 13.6318 7.29955C13.6351 7.27097 13.6335 7.24239 13.6399 7.21381C13.9067 5.8133 13.6736 5.9578 15.1314 5.91969C17.4684 5.86094 19.7941 6.12294 22.1263 6.15311C22.5008 6.15787 22.8817 6.2325 23.2466 6.32777C23.822 6.47703 24.0936 6.82478 24.0309 7.40911C23.785 9.67978 23.9104 11.9584 23.8654 14.2338C23.8493 15.0643 23.6227 15.3723 22.7869 15.5343C21.8161 15.7232 20.8373 15.8772 19.8584 16.0233C17.642 16.3568 15.4224 16.676 13.2043 17.0015C13.2027 16.9856 13.1995 16.9713 13.1979 16.9554L13.1931 16.9586Z" fill="#333333"/>
<path d="M23.566 9.30131H23.6223C23.6223 8.66775 23.6127 8.0326 23.6255 7.39904C23.6336 6.98778 23.4503 6.76389 23.0469 6.66068C22.7608 6.58764 22.4747 6.55747 22.1822 6.54159C21.512 6.50666 20.8417 6.45267 20.1715 6.43679C18.3922 6.39392 16.621 6.1605 14.8369 6.22084C14.1844 6.24307 14.1522 6.27959 14.0719 6.90521C13.6781 9.93329 13.2859 12.9598 12.8954 15.9879C12.8134 16.6294 12.8777 16.6945 13.5334 16.5992C15.3786 16.3324 17.2254 16.0672 19.0689 15.7814C20.2776 15.5941 21.4862 15.3988 22.6853 15.159C23.4021 15.0161 23.4214 14.9399 23.4391 14.2269C23.4809 12.585 23.5243 10.9432 23.566 9.29973V9.30131Z" fill="#333333"/>
<path d="M11.9372 12.5092C11.9372 11.99 12.6958 8.26801 12.707 7.74878C12.7135 7.41215 13.043 6.68967 12.707 6.60551C12.4692 6.54517 11.7475 7.05964 11.5032 7.04694C10.9439 7.01836 10.1402 7.49313 9.25301 7.95203C7.70199 8.05524 5.59324 9.80031 4.10651 9.84954C3.56326 9.867 3.53593 9.89717 3.46843 10.4101C3.14054 12.8887 2.63907 15.4166 2.3128 17.8953C2.24368 18.4209 2.47192 18.4225 3.01839 18.3431C4.55655 18.1255 6.09632 17.908 7.63287 17.6746C8.64063 17.5206 9.6484 17.3618 10.6481 17.1649C11.246 17.0474 11.418 16.9315 11.4325 16.3471C11.6366 15.0546 11.9355 12.5076 11.9355 12.5076L11.9372 12.5092Z" fill="#333333"/>
<path d="M13.8364 32.031C13.3349 30.3891 14.1048 28.814 15.6076 28.2265C16.2553 27.974 16.9255 27.7676 17.5974 27.5881C18.7835 27.2721 19.9102 26.8117 21.0112 26.2845C21.9563 25.8319 22.5896 25.1237 22.7841 24.0742C22.8789 23.566 22.993 23.0611 23.0846 22.5514C23.1344 22.2719 23.1441 21.9829 23.345 21.7432C23.6504 21.8273 23.5411 22.0703 23.517 22.237C23.4318 22.8055 23.3 23.366 23.2116 23.9328C22.9962 25.3175 22.162 26.1987 20.91 26.7561C19.7672 27.2642 18.6116 27.7279 17.39 28.028C16.8548 28.1598 16.3373 28.3567 15.8117 28.5266C14.8634 28.8314 14.3218 29.5047 14.1064 30.4384C13.9858 30.9624 13.9231 31.4991 13.8364 32.031Z" fill="#333333"/>
<path d="M25.3055 5.97876C25.3505 6.10738 25.4052 6.18677 25.4003 6.25981C25.1994 9.33712 25.1255 12.4192 25.0837 15.5028C25.0789 15.8029 25.2846 16.3476 24.8314 16.3508C24.5035 16.3539 24.6787 15.8125 24.6867 15.5266C24.7848 12.5319 24.9069 9.53878 25.0258 6.54404C25.0339 6.35191 24.9841 6.13279 25.3055 5.97559V5.97876Z" fill="#333333"/>
<path d="M12.7191 26.7656C12.5038 26.6735 12.5793 26.475 12.5777 26.3194C12.5504 23.8979 12.5295 21.4779 12.5118 19.0564C12.5102 18.8278 12.5343 18.5959 12.568 18.3689C12.5857 18.2514 12.6709 18.1656 12.8124 18.1768C12.9634 18.1895 13.0036 18.2895 12.9827 18.4149C12.7336 19.9123 13.0968 21.4049 13.01 22.8975C12.9393 24.1043 12.9024 25.3111 12.8991 26.5194C12.8991 26.6227 12.8863 26.756 12.7175 26.764H12.7191V26.7656Z" fill="#333333"/>
<path d="M22.0474 18.6829C21.2791 18.7035 21.165 18.6368 21.1087 18.1986C21.0444 17.6984 21.2614 17.3379 21.7307 17.2204C21.9799 17.1569 22.2435 17.1395 22.5006 17.1172C23.076 17.0696 23.2818 17.1903 23.346 17.5952C23.4425 18.1875 23.2673 18.4796 22.7031 18.6067C22.4524 18.6638 22.1888 18.667 22.0458 18.6829H22.0474ZM22.3544 17.4634C22.2692 17.4777 22.0634 17.4904 21.8738 17.5555C21.5813 17.6539 21.4704 17.8937 21.5523 18.1732C21.6343 18.451 21.877 18.3351 22.0683 18.3129C22.2418 18.2923 22.4138 18.2621 22.5874 18.243C22.8719 18.2129 23.0005 18.0509 22.9844 17.781C22.9651 17.4491 22.708 17.4681 22.3544 17.4634Z" fill="#333333"/>
<path d="M27.1782 5.6576C26.3409 5.4099 25.4601 5.52422 24.5938 5.22888C25.174 5.02881 26.7041 5.08597 27.1236 5.31304C27.2361 5.37338 27.1943 5.51787 27.1766 5.6576H27.1782Z" fill="#333333"/>
<path d="M38.133 34.404C38.0334 34.7327 37.8083 34.7422 37.6187 34.7359C36.365 34.6993 35.1162 35.0741 33.7227 34.8534C34.3125 34.5136 37.0465 34.269 38.133 34.404Z" fill="#333333"/>
<path d="M4.3574 26.9111V26.0298C4.87012 26.0075 5.35874 25.9853 5.99682 25.9583C5.3507 25.7408 4.81708 25.8392 4.17578 25.709C4.74476 25.2867 5.26069 25.5423 5.73002 25.5042C6.22023 25.4645 6.71849 25.5121 7.21192 25.5296C7.70857 25.5487 8.21968 25.5058 8.68097 25.7757C8.16825 26.0457 7.60892 25.8916 6.99333 26.0695C7.54945 26.1378 8.01234 26.1949 8.47363 26.2521C8.4656 26.3204 8.45917 26.3886 8.45113 26.4585C7.96895 26.6173 7.46105 26.441 6.97083 26.4712C6.48383 26.4998 5.99361 26.4776 5.50178 26.5443C6.23952 26.7872 7.02387 26.6554 7.76482 26.8507C7.87573 26.8793 7.99627 26.8698 8.112 26.8841C8.24701 26.9015 8.43506 26.8745 8.42541 27.081C8.41577 27.2747 8.24379 27.2747 8.09914 27.262C7.66517 27.2239 7.23121 27.1746 6.79725 27.1334C5.992 27.0587 5.18676 26.9857 4.36062 26.9095H4.3574V26.9111Z" fill="#333333"/>
<path d="M3.39585 34.1504C5.58335 34.5394 7.62941 35.4223 9.84745 35.9272C9.66583 36.2845 9.44724 36.1987 9.28009 36.1559C8.63396 35.9891 7.98784 35.8177 7.35296 35.616C6.19251 35.246 5.04331 34.8427 3.85071 34.5791C3.66748 34.5394 3.49711 34.4378 3.32031 34.3648C3.34603 34.2933 3.37014 34.2218 3.39585 34.1504Z" fill="#333333"/>
</g>
<defs>
<clipPath id="clip0_3183_2865">
<rect width="77" height="47" fill="white"/>
</clipPath>
</defs>
</svg>
