<svg width="104" height="104" viewBox="0 0 104 104" fill="none" xmlns="http://www.w3.org/2000/svg">
<circle opacity="0.18" cx="52" cy="52" r="52" fill="#519872"/>
<path d="M68.5625 84.75C77.5026 84.75 84.75 77.5026 84.75 68.5625C84.75 59.6224 77.5026 52.375 68.5625 52.375C59.6224 52.375 52.375 59.6224 52.375 68.5625C52.375 77.5026 59.6224 84.75 68.5625 84.75ZM76.3267 63.971L70.1511 74.2637C68.9901 76.1987 66.3196 76.5275 64.7239 74.9318L61.1461 71.3539C60.243 70.4509 60.243 68.9866 61.1461 68.0836C62.0492 67.1805 63.5134 67.1805 64.4164 68.0836L66.9471 70.6143L72.3608 61.5915C73.0179 60.4963 74.4384 60.1412 75.5335 60.7983C76.6287 61.4554 76.9838 62.8759 76.3267 63.971Z" fill="black"/>
<path d="M61.625 33.875C61.625 41.538 55.4129 47.75 47.75 47.75C40.087 47.75 33.875 41.538 33.875 33.875C33.875 26.212 40.087 20 47.75 20C55.4129 20 61.625 26.212 61.625 33.875Z" fill="black"/>
<path d="M20 70.875C20 75.5 24.625 75.5 24.625 75.5H48.9343C48.1673 73.3301 47.75 70.995 47.75 68.5625C47.75 62.3018 50.5144 56.6868 54.8891 52.8714C52.7315 52.5515 50.3584 52.375 47.75 52.375C24.625 52.375 20 66.25 20 70.875Z" fill="black"/>
</svg>
